<svg xmlns="http://www.w3.org/2000/svg" width="620" height="132" viewBox="0 0 620 132" role="img" aria-labelledby="title desc">
  <title id="title">Smart Water Tank</title><desc id="desc">Water tank and wireless automatic control brand mark</desc>
  <defs><linearGradient id="g" x1="10" y1="8" x2="122" y2="124"><stop stop-color="#2787ea"/><stop offset="1" stop-color="#0b4c9b"/></linearGradient></defs>
  <rect x="6" y="6" width="120" height="120" rx="34" fill="url(#g)"/>
  <path d="M35 46c0-13 14-23 31-23s31 10 31 23v50c0 13-14 23-31 23S35 109 35 96V46Z" fill="#fff"/><ellipse cx="66" cy="46" rx="31" ry="17" fill="#eaf7ff"/>
  <path d="M35 70c8 5 19 8 31 8s23-3 31-8v26c0 13-14 23-31 23S35 109 35 96V70Z" fill="#42c4f4"/>
  <path d="M101 40c10 5 16 14 17 24M101 55c4 2 7 6 8 10" fill="none" stroke="#71f0dc" stroke-width="5" stroke-linecap="round"/>
  <text x="151" y="59" fill="#10213f" font-family="Manrope,Arial,sans-serif" font-size="37" font-weight="800">Smart Water Tank</text>
  <text x="153" y="92" fill="#5f718a" font-family="Arial,sans-serif" font-size="20" font-weight="600" letter-spacing="4">SMART WATER TANK</text>
</svg>
